# xmcd
#
# Track frame offsets:
# 150
# 21084
# 48631
# 64994
# 83058
# 100404
# 113735
# 129592
# 142755
# 158099
# 178610
# 190535
# 206434
# 224476
# 253433
# 268864
#
# Disc length: 3723 seconds
#
#
# Revision: 4
# Processed by: cddbd v1.5.2PL0 Copyright (c) Steve Scherf et al.
# Submitted via: FreeRIP 2.96 
#
DISCID=ea0e8910
DTITLE=The Travellers - Acoustic On The Road
DYEAR=2006
DGENRE=Country
TTITLE0=Africa
TTITLE1=Sultains Of Swing
TTITLE2=Aquarius (Let The Sushine In)
TTITLE3=Mrs. Robinson
TTITLE4=Drive
TTITLE5=Song Of The South
TTITLE6=You Got It
TTITLE7=Penny Lane
TTITLE8=The Sound Of Silence
TTITLE9=Tears In Heaven
TTITLE10=California Dreamin'
TTITLE11=Venus
TTITLE12=Illusion World
TTITLE13=Hotel California
TTITLE14=Ventura Highway
TTITLE15=We CAn Work It Out
EXTD=Country Music From Brasil - Porto Alegre
EXTT0=
EXTT1=
EXTT2=
EXTT3=
EXTT4=
EXTT5=
EXTT6=
EXTT7=
EXTT8=
EXTT9=
EXTT10=
EXTT11=
EXTT12=
EXTT13=
EXTT14=
EXTT15=
PLAYORDER=
